<svg width="104" height="144" viewBox="0 0 104 144" fill="none" xmlns="http://www.w3.org/2000/svg">
<path d="M24.492 95.7245V13.7686L48.9839 0V108.182C48.9839 113.614 44.5913 118.017 39.1726 118.017H0V95.7245H24.492Z" fill="#3F51B5"/>
<path d="M78.6804 95.7245V13.7686L54.1884 0V108.182C54.1884 113.614 58.5811 118.017 63.9997 118.017H103.172V95.7245H78.6804Z" fill="#3F51B5"/>
<path d="M22.9534 125.062H26.3334V143.262H22.9534V125.062Z" fill="#3F51B5"/>
<path d="M44.1522 133.798C45.1575 134.128 45.9548 134.682 46.5442 135.462C47.1335 136.225 47.4282 137.178 47.4282 138.322C47.4282 139.9 46.8215 141.122 45.6082 141.988C44.3948 142.838 42.6268 143.262 40.3042 143.262H31.2562V125.062H39.7842C41.9335 125.062 43.5888 125.487 44.7502 126.336C45.9115 127.168 46.4922 128.321 46.4922 129.794C46.4922 130.696 46.2842 131.493 45.8682 132.186C45.4522 132.88 44.8802 133.417 44.1522 133.798ZM34.6362 127.714V132.732H39.4202C40.5988 132.732 41.5002 132.524 42.1242 132.108C42.7655 131.675 43.0862 131.051 43.0862 130.236C43.0862 129.404 42.7655 128.78 42.1242 128.364C41.5002 127.931 40.5988 127.714 39.4202 127.714H34.6362ZM40.0962 140.61C42.7135 140.61 44.0222 139.735 44.0222 137.984C44.0222 136.234 42.7135 135.358 40.0962 135.358H34.6362V140.61H40.0962Z" fill="#3F51B5"/>
<path d="M64.6855 140.428V143.262H51.0355V125.062H64.3215V127.896H54.4155V132.628H63.2035V135.41H54.4155V140.428H64.6855Z" fill="#3F51B5"/>
<path d="M72.1454 127.922H66.1134V125.062H81.5574V127.922H75.5254V143.262H72.1454V127.922Z" fill="#3F51B5"/>
</svg>
